<?xml version="1.0" encoding="utf-8"?>
<!-- Generator: Adobe Illustrator 16.0.0, SVG Export Plug-In . SVG Version: 6.00 Build 0)  -->
<!DOCTYPE svg PUBLIC "-//W3C//DTD SVG 1.1//EN" "http://www.w3.org/Graphics/SVG/1.1/DTD/svg11.dtd">
<svg version="1.1" id="Layer_1" xmlns="http://www.w3.org/2000/svg" xmlns:xlink="http://www.w3.org/1999/xlink" x="0px" y="0px"
	 width="317.947px" height="84px" viewBox="0 0 317.947 84" enable-background="new 0 0 317.947 84" xml:space="preserve">
<g id="Layer_2">
	<rect x="-4.917" y="-135.308" fill="#2C5688" width="330.025" height="94.008"/>
</g>
<g id="Layer_1_1_">
	<g>
		
			<path fill="none" stroke="#FFFFFF" stroke-width="2.944" stroke-linecap="round" stroke-linejoin="round" stroke-miterlimit="10" d="
			M70.559,42.379c1.24-1.364,1.996-3.175,1.996-5.164c0-4.239-3.438-7.676-7.676-7.676c-4.24,0-7.678,3.438-7.678,7.676
			c0,1.988,0.756,3.8,1.996,5.164H46.959v12.238c1.363-1.239,3.176-1.995,5.162-1.995c4.24,0,7.676,3.438,7.678,7.676
			c0,4.24-3.438,7.679-7.678,7.679c-1.986,0-3.799-0.758-5.162-1.996v12.237h35.84V42.379H70.559z"/>
		
			<path fill="none" stroke="#FFFFFF" stroke-width="2.944" stroke-linecap="round" stroke-linejoin="round" stroke-miterlimit="10" d="
			M46.862,42.395l0.002-12.238c-1.365,1.24-3.178,1.995-5.164,1.995c-4.238,0-7.676-3.438-7.676-7.677
			c0-4.239,3.438-7.676,7.676-7.676c1.986,0,3.801,0.756,5.162,1.996V6.555h-35.74v35.839l12.236-0.001
			c-1.238,1.365-1.994,3.175-1.994,5.164c0,4.239,3.438,7.676,7.676,7.676c4.24,0,7.676-3.437,7.678-7.676
			c-0.002-1.988-0.756-3.799-1.996-5.163H46.96"/>
		
			<polyline fill="none" stroke="#FFFFFF" stroke-width="2.944" stroke-linecap="round" stroke-linejoin="round" stroke-miterlimit="10" points="
			82.702,37.292 82.702,6.556 52.059,6.555 		"/>
		
			<polyline fill="none" stroke="#FFFFFF" stroke-width="2.944" stroke-linecap="round" stroke-linejoin="round" stroke-miterlimit="10" points="
			11.122,47.424 11.122,78.232 41.571,78.232 		"/>
		<path fill="#FCB813" d="M79.127,46.05h-8.568c-1.453-0.001-2.768-0.856-3.355-2.186c-0.588-1.328-0.336-2.88,0.641-3.954
			c0.672-0.738,1.041-1.695,1.041-2.695c0-2.209-1.797-4.006-4.006-4.007c-2.211,0.001-4.008,1.798-4.008,4.007
			c0,1,0.369,1.957,1.041,2.695c0.979,1.074,1.229,2.625,0.641,3.954c-0.588,1.329-1.902,2.186-3.355,2.186h-8.568v3.001
			c0.492-0.064,0.99-0.099,1.492-0.099c6.256,0,11.348,5.09,11.348,11.346c0,6.257-5.092,11.349-11.348,11.349
			c-0.502,0-1-0.035-1.492-0.1v3.001h28.498V46.05H79.127z"/>
		<path fill="#2BB05F" d="M79.127,38.725V10.226H50.629v8.568c0,1.452-0.855,2.767-2.184,3.355
			c-0.484,0.214-0.996,0.281-1.508,0.314c-0.926,0.041-1.836-0.309-2.545-0.954c-0.73-0.664-1.678-1.033-2.67-1.038
			c-2.148,0.015-3.934,1.811-3.934,4.004s1.785,3.989,3.979,4.004c0.947-0.004,1.895-0.374,2.625-1.037
			c0.711-0.645,1.619-0.988,2.547-0.956c0.51-0.033,1.021,0.1,1.508,0.315c1.326,0.588,2.182,1.904,2.182,3.355v8.568h2.904
			c-0.066-0.492-0.1-0.991-0.098-1.492c-0.002-6.257,5.088-11.346,11.344-11.346c6.258,0,11.348,5.089,11.35,11.346
			c-0.002,0.502-0.035,1-0.1,1.494L79.127,38.725z"/>
		<path fill="#EF4923" d="M14.792,46.063v28.502H43.29v-8.568c0-1.453,0.855-2.77,2.184-3.357c1.329-0.587,2.881-0.334,3.955,0.644
			c0.738,0.671,1.693,1.038,2.695,1.04c2.207,0,4.004-1.797,4.004-4.006c0.002-2.209-1.797-4.008-4.006-4.008
			c-1,0-1.955,0.367-2.691,1.039c-1.074,0.978-2.625,1.23-3.953,0.642c-1.33-0.587-2.186-1.902-2.186-3.355l-0.002-8.567h-3
			c0.064,0.49,0.098,0.99,0.098,1.49c0,6.26-5.09,11.349-11.344,11.349c-3.033,0-5.885-1.181-8.027-3.323
			c-2.143-2.143-3.322-4.99-3.322-8.021c0-0.502,0.033-1.002,0.1-1.494L14.792,46.063z"/>
		<path fill="#3D6AB2" d="M34.721,38.725l8.57,0.001v-3.002c-0.494,0.065-0.992,0.098-1.496,0.098
			c-6.256,0-11.344-5.089-11.346-11.346c0.002-6.258,5.09-11.347,11.348-11.348c0.502,0.001,1,0.033,1.494,0.098v-3h-28.5v28.499
			l8.566-0.001c1.455,0.001,2.77,0.857,3.357,2.186c0.588,1.329,0.336,2.88-0.641,3.953c-0.672,0.738-1.041,1.695-1.041,2.693
			c0,2.209,1.797,4.008,4.006,4.008s4.008-1.799,4.008-4.008c0-0.998-0.371-1.957-1.041-2.693c-0.977-1.073-1.229-2.625-0.641-3.953
			C31.952,39.582,33.268,38.725,34.721,38.725z"/>
		<g>
			<path fill="#FFFFFF" d="M99.676,77.613c-1.527,0-2.711-1.195-2.711-2.749s1.184-2.737,2.711-2.737
				c0.826,0,1.705,0.46,2.316,1.159l1.17-1.427c-0.877-0.902-2.227-1.476-3.512-1.476c-2.699,0-4.748,1.935-4.748,4.505
				c0,2.584,2.011,4.557,4.671,4.557c1.298,0,2.66-0.622,3.602-1.59l-1.183-1.285C101.356,77.207,100.477,77.613,99.676,77.613z"/>
			<polygon fill="#FFFFFF" points="106.381,75.718 110.683,75.718 110.683,74.051 106.381,74.051 106.381,72.116 111.154,72.116 
				111.154,70.448 104.37,70.448 104.37,79.357 111.293,79.357 111.293,77.689 106.381,77.689 			"/>
			<polygon fill="#FFFFFF" points="119.031,76.176 114.704,70.448 112.871,70.448 112.871,79.357 114.792,79.357 114.792,73.643 
				119.108,79.357 120.94,79.357 120.94,70.448 119.031,70.448 			"/>
			<polygon fill="#FFFFFF" points="122.02,72.152 124.73,72.152 124.73,79.357 126.741,79.357 126.741,72.152 129.465,72.152 
				129.465,70.448 122.02,70.448 			"/>
			<path fill="#FFFFFF" d="M138.069,73.541c0-1.973-1.324-3.093-3.654-3.093h-3.869v8.909h2.012v-2.545h1.857h0.191l1.412,2.545
				h2.279l-1.896-2.939C137.483,75.907,138.069,74.915,138.069,73.541z M134.415,75.131h-1.857v-3.015h1.857
				c1.108,0,1.744,0.495,1.744,1.487C136.159,74.622,135.523,75.131,134.415,75.131z"/>
			<path fill="#FFFFFF" d="M143.908,70.385c-2.724,0-4.785,1.922-4.785,4.518c0,2.584,2.062,4.545,4.785,4.545
				c2.723,0,4.786-1.973,4.786-4.545C148.694,72.318,146.631,70.385,143.908,70.385z M143.934,77.689c-1.49,0-2.75-1.223-2.75-2.787
				c0-1.565,1.248-2.762,2.75-2.762c1.488,0,2.697,1.195,2.697,2.762C146.631,76.468,145.422,77.689,143.934,77.689z"/>
			<polygon fill="#FFFFFF" points="152.204,72.152 154.915,72.152 154.915,79.357 156.925,79.357 156.925,72.152 159.649,72.152 
				159.649,70.448 152.204,70.448 			"/>
			<polygon fill="#FFFFFF" points="162.741,75.718 167.044,75.718 167.044,74.051 162.741,74.051 162.741,72.116 167.515,72.116 
				167.515,70.448 160.729,70.448 160.729,79.357 167.653,79.357 167.653,77.689 162.741,77.689 			"/>
			<path fill="#FFFFFF" d="M176.753,73.541c0-1.973-1.324-3.093-3.654-3.093h-3.867v8.909h2.011v-2.545h1.856h0.191l1.412,2.545
				h2.279l-1.896-2.939C176.167,75.907,176.753,74.915,176.753,73.541z M173.099,75.131h-1.856v-3.015h1.856
				c1.109,0,1.744,0.495,1.744,1.487C174.843,74.622,174.208,75.131,173.099,75.131z"/>
			<path fill="#FFFFFF" d="M181.294,70.448l-3.869,8.909h2.074l0.701-1.73h4.123l0.701,1.73h2.149l-3.807-8.909H181.294z
				 M180.86,76.01l1.414-3.463l1.397,3.463H180.86z"/>
			<path fill="#FFFFFF" d="M191.88,70.448h-3.779v8.909h2.012v-2.545h1.769c2.269,0,3.565-1.197,3.565-3.271
				C195.446,71.568,194.147,70.448,191.88,70.448z M191.778,75.131h-1.666v-3.015h1.666c1.121,0,1.758,0.495,1.758,1.487
				C193.536,74.622,192.899,75.131,191.778,75.131z"/>
			<polygon fill="#FFFFFF" points="198.739,75.718 203.042,75.718 203.042,74.051 198.739,74.051 198.739,72.116 203.513,72.116 
				203.513,70.448 196.729,70.448 196.729,79.357 203.653,79.357 203.653,77.689 198.739,77.689 			"/>
			<polygon fill="#FFFFFF" points="200.472,67.546 199.122,69.621 200.675,69.621 202.292,68.234 			"/>
			<path fill="#FFFFFF" d="M211.097,75.629c0,1.284-0.789,2.063-1.984,2.063c-1.196,0-2.036-0.777-2.036-2.063v-5.181h-2.013v5.181
				c0,2.354,1.578,3.816,4.049,3.816c2.455,0,3.996-1.463,3.996-3.816v-5.181h-2.012V75.629L211.097,75.629z"/>
			<polygon fill="#FFFFFF" points="214.022,72.152 216.733,72.152 216.733,79.357 218.745,79.357 218.745,72.152 221.468,72.152 
				221.468,70.448 214.022,70.448 			"/>
			<rect x="222.548" y="70.448" fill="#FFFFFF" width="2.01" height="8.909"/>
			<path fill="#FFFFFF" d="M230.669,77.613c-1.529,0-2.713-1.195-2.713-2.749s1.184-2.737,2.713-2.737
				c0.826,0,1.705,0.46,2.316,1.159l1.17-1.427c-0.877-0.902-2.229-1.476-3.512-1.476c-2.699,0-4.748,1.935-4.748,4.505
				c0,2.584,2.01,4.557,4.67,4.557c1.299,0,2.662-0.622,3.602-1.59l-1.182-1.285C232.349,77.207,231.47,77.613,230.669,77.613z"/>
			<path fill="#FFFFFF" d="M239.333,70.385c-2.725,0-4.785,1.922-4.785,4.518c0,2.584,2.061,4.545,4.785,4.545
				s4.787-1.973,4.787-4.545C244.12,72.318,242.058,70.385,239.333,70.385z M239.36,77.689c-1.492,0-2.752-1.223-2.752-2.787
				c0-1.565,1.248-2.762,2.752-2.762c1.488,0,2.697,1.195,2.697,2.762C242.058,76.468,240.849,77.689,239.36,77.689z"/>
			<rect x="248.505" y="70.448" fill="#FFFFFF" width="2.012" height="8.909"/>
			<polygon fill="#FFFFFF" points="258.649,76.176 254.323,70.448 252.489,70.448 252.489,79.357 254.411,79.357 254.411,73.643 
				258.726,79.357 260.56,79.357 260.56,70.448 258.649,70.448 			"/>
			<polygon fill="#FFFFFF" points="264.526,72.116 268.905,72.116 268.919,70.448 262.517,70.448 262.517,79.357 264.526,79.357 
				264.526,75.982 268.548,75.982 268.548,74.305 264.526,74.305 			"/>
			<path fill="#FFFFFF" d="M272.532,70.448l-3.871,8.909h2.076l0.701-1.73h4.121l0.7,1.73h2.15l-3.806-8.909H272.532z
				 M272.099,76.01l1.412-3.463l1.4,3.463H272.099z"/>
			<polygon fill="#FFFFFF" points="285.499,76.176 281.171,70.448 279.339,70.448 279.339,79.357 281.261,79.357 281.261,73.643 
				285.575,79.357 287.409,79.357 287.409,70.448 285.499,70.448 			"/>
			<polygon fill="#FFFFFF" points="288.487,72.152 291.198,72.152 291.198,79.357 293.21,79.357 293.21,72.152 295.935,72.152 
				295.935,70.448 288.487,70.448 			"/>
			<rect x="297.015" y="70.448" fill="#FFFFFF" width="2.01" height="8.909"/>
			<polygon fill="#FFFFFF" points="303.007,77.602 303.007,70.448 300.997,70.448 300.997,79.357 306.825,79.357 306.825,77.602 			
				"/>
			<path fill="#FFFFFF" d="M262.825,60.268h13.338v-4.104c4.324,2.723,9.363,4.104,14.984,4.104c8.953,0,14.701-4.33,14.701-11.024
				c0-10.905-16.832-9.717-16.832-12.743c0-0.652,0.713-1.066,1.836-1.066c2.487,0,6.164,1.184,10.967,3.555l4.385-8.238
				c-4.859-2.725-9.9-4.09-15.057-4.09c-8.65,0-14.281,4.387-14.281,11.202c0,10.962,16.475,9.72,16.475,12.562
				c0,0.595-0.77,0.948-2.012,0.948c-3.619,0-7.645-1.362-11.975-4.03l-3.191,6.578V14.487h-13.338v16.206
				c-2.131-2.431-5.094-3.792-8.59-3.792c-8.229,0-13.723,5.609-14.438,14.471v-8.148h-12.776v24.644l-10.658-16.85l14.391-14.175
				c0.852,0.407,1.799,0.642,2.805,0.642c3.59,0,6.502-2.908,6.502-6.499c0-3.588-2.912-6.499-6.502-6.499
				c-3.588,0-6.498,2.91-6.498,6.499c0,1.182,0.32,2.287,0.871,3.241h-8.07L205.3,38.588v-9.534h-10.977v31.205H205.3v-7.807
				l3.217-3.597l6.908,11.402h11.596v0.008h12.777V45.4c0.729,9.091,6.393,14.865,14.793,14.865c3.318,0,6.16-1.303,8.234-3.736
				V60.268z M258.026,50.011c-2.963,0-4.859-2.487-4.859-6.278c0-3.794,1.896-6.283,4.859-6.283c2.904,0,4.799,2.488,4.799,6.283
				C262.825,47.521,260.931,50.011,258.026,50.011z"/>
			<path fill="#FFFFFF" d="M185.362,27.484c3.59,0,6.502-2.908,6.502-6.499c0-3.588-2.912-6.499-6.502-6.499
				c-3.588,0-6.498,2.91-6.498,6.499C178.864,24.576,181.774,27.484,185.362,27.484z"/>
			<path fill="#FFFFFF" d="M158.455,40.567V29.324c-3.259,0.455-5.935,2.22-7.782,4.99v-4.546h-12.776v22.693L124.88,20.456h-13.514
				L94.559,60.268h13.516l2.041-5.621h14.938l1.988,5.621h10.854h3.174h9.603V46.01C150.672,42.345,153.694,40.33,158.455,40.567z
				 M113.526,45.213l4.203-11.639l4.089,11.639H113.526z"/>
			<path fill="#FFFFFF" d="M171.657,60.745c2.58,0,5.281-0.459,7.318-1.229v0.752h12.776V33.224h-12.776V58.13l-2.854-7.356
				c-0.328,0.064-0.621,0.095-0.943,0.095c-1.532,0.055-2.5-0.968-2.5-2.612V37.268l0.093-0.101v0.138h3.299v-8.103h-2.844h-0.455
				h-0.093v-8.747h-12.721v29.729C159.958,56.657,164.56,60.807,171.657,60.745z"/>
		</g>
	</g>
</g>
</svg>
